<svg id="artwork" xmlns="http://www.w3.org/2000/svg" viewBox="0 0 135 40" height="40"><path class="bg" d="M-10-10h155v60H-10z" fill="#fff" fill-opacity="0"/><path class="bg" d="M5 0h125c2.8 0 5 2.2 5 5v30c0 2.8-2.2 5-5 5H5c-2.8 0-5-2.2-5-5V5c0-2.8 2.2-5 5-5z"/><path class="text" d="M130 .8c2.3 0 4.2 1.9 4.2 4.2v30c0 2.3-1.9 4.2-4.2 4.2H5C2.7 39.2.8 37.3.8 35V5C.8 2.7 2.7.8 5 .8h125m0-.8H5C2.2 0 0 2.2 0 5v30c0 2.8 2.2 5 5 5h125c2.8 0 5-2.2 5-5V5c0-2.8-2.2-5-5-5z" fill="#a6a6a6"/><path d="M68.1 21.8c-2.3 0-4.2 1.9-4.2 4.3 0 2.3 1.9 4.2 4.3 4.2 2.3 0 4.2-1.9 4.2-4.2 0-2.3-1.8-4.2-4.1-4.3-.1-.1-.1-.1-.2 0zm0 6.8c-1.4.1-2.7-1-2.8-2.4-.1-1.4 1-2.7 2.4-2.8 1.4-.1 2.7 1 2.8 2.4v.2c.1 1.4-.9 2.5-2.4 2.6.1 0 .1 0 0 0zm-9.3-6.8c-2.3 0-4.2 1.9-4.2 4.3 0 2.3 1.9 4.2 4.3 4.2 2.3 0 4.2-1.9 4.2-4.2 0-2.3-1.8-4.2-4.1-4.3-.1-.1-.1-.1-.2 0zm0 6.8c-1.4.1-2.7-1-2.8-2.4-.1-1.4 1-2.7 2.4-2.8 1.4-.1 2.7 1 2.8 2.4v.2c.1 1.4-1 2.5-2.4 2.6.1 0 0 0 0 0zm-11.1-5.5v1.8H52c-.1.8-.4 1.6-1 2.3-.9.9-2.1 1.4-3.3 1.3-2.7 0-4.8-2.1-4.8-4.8s2.1-4.8 4.8-4.8c1.2 0 2.4.4 3.3 1.3l1.3-1.3c-1.2-1.2-2.8-1.9-4.5-1.9-3.6-.1-6.7 2.7-6.9 6.3-.1 3.6 2.7 6.7 6.3 6.9h.5c1.7.1 3.4-.6 4.6-1.8 1-1.2 1.6-2.7 1.6-4.2 0-.4 0-.8-.1-1.1h-6.1zm45.4 1.4c-.5-1.6-2-2.6-3.6-2.7-2.2 0-4 1.8-4 4v.3c0 2.3 1.8 4.2 4.1 4.2h.2c1.4 0 2.8-.7 3.5-1.9l-1.4-1c-.4.7-1.2 1.2-2.1 1.2-.9 0-1.7-.5-2.1-1.3l5.7-2.3-.3-.5zm-5.8 1.4c-.1-1.3.9-2.4 2.2-2.5.7 0 1.3.3 1.6.9l-3.8 1.6zM82.6 30h1.9V17.5h-1.9V30zm-3-7.3c-.6-.6-1.5-1-2.3-1-2.3.1-4.2 2.1-4 4.5.1 2.2 1.9 3.9 4 4 .9 0 1.7-.4 2.2-1h.1v.6c0 1.6-.9 2.5-2.3 2.5-1 0-1.8-.6-2.1-1.5l-1.6.7c.6 1.5 2.1 2.5 3.8 2.5 2.2 0 4-1.3 4-4.4V22h-1.7v.7zm-2.2 5.9c-1.4-.1-2.5-1.4-2.4-2.8.1-1.3 1.1-2.2 2.4-2.4 1.3.1 2.3 1.2 2.3 2.5v.1c.1 1.3-.9 2.5-2.2 2.6h-.1zm24.4-11.1h-4.5V30h1.9v-4.7h2.6c2.1.2 4-1.5 4.2-3.6.2-2.1-1.5-4-3.6-4.2h-.6zm0 6h-2.6v-4.3h2.7c1.2 0 2.1 1 2.1 2.1s-1 2.2-2.2 2.2zm11.5-1.8c-1.4-.1-2.7.7-3.3 1.9l1.7.7c.3-.6 1-1 1.7-.9 1-.1 1.9.6 2 1.6v.1c-.6-.3-1.3-.5-1.9-.5-1.8 0-3.6 1-3.6 2.8.1 1.6 1.4 2.8 3 2.8h.1c1 .1 1.9-.4 2.4-1.2h.1v1h1.8v-4.8c-.1-2.2-1.8-3.5-4-3.5zm-.2 6.8c-.6 0-1.5-.3-1.5-1.1 0-1 1.1-1.3 2-1.3.6 0 1.2.1 1.7.4-.1 1.2-1 2.1-2.2 2zm10.6-6.5l-2.1 5.4h-.1l-2.2-5.4h-2l3.3 7.6-1.9 4.2h1.9l5.1-11.8h-2zm-16.8 8h1.9V17.5h-1.9V30z" fill="#fff"/><linearGradient id="SVGID_1_" gradientUnits="userSpaceOnUse" x1="21.802" y1="598.712" x2="5.022" y2="615.492" gradientTransform="translate(0 -590)"><stop offset="0" stop-color="#00A0FF"/><stop offset=".01" stop-color="#00A1FF"/><stop offset=".26" stop-color="#00BEFF"/><stop offset=".51" stop-color="#00D2FF"/><stop offset=".76" stop-color="#00DFFF"/><stop offset="1" stop-color="#00E3FF"/></linearGradient><path d="M10.4 7.5c-.3.4-.5.9-.4 1.4V31c0 .5.1 1 .5 1.4l.1.1L23 20.1v-.3L10.4 7.5z" fill="url(#SVGID_1_)"/><linearGradient id="SVGID_2_" gradientUnits="userSpaceOnUse" x1="33.83" y1="610" x2="9.64" y2="610" gradientTransform="translate(0 -590)"><stop offset="0" stop-color="#FFE000"/><stop offset=".41" stop-color="#FFBD00"/><stop offset=".78" stop-color="orange"/><stop offset="1" stop-color="#FF9C00"/></linearGradient><path d="M27 24.3l-4.1-4.1v-.3l4.1-4.1h.1l4.9 2.8c1.4.8 1.4 2.1 0 2.9l-4.9 2.8H27z" fill="url(#SVGID_2_)"/><linearGradient id="SVGID_3_" gradientUnits="userSpaceOnUse" x1="24.828" y1="612.298" x2="2.067" y2="635.048" gradientTransform="translate(0 -590)"><stop offset="0" stop-color="#FF3A44"/><stop offset="1" stop-color="#C31162"/></linearGradient><path d="M27.1 24.2L22.9 20 10.4 32.5c.6.5 1.5.5 2.1.1l14.6-8.4" fill="url(#SVGID_3_)"/><linearGradient id="SVGID_4_" gradientUnits="userSpaceOnUse" x1="7.298" y1="590.183" x2="17.457" y2="600.342" gradientTransform="translate(0 -590)"><stop offset="0" stop-color="#32A071"/><stop offset=".07" stop-color="#2DA771"/><stop offset=".48" stop-color="#15CF74"/><stop offset=".8" stop-color="#06E775"/><stop offset="1" stop-color="#00F076"/></linearGradient><path d="M27.1 15.8L12.5 7.5c-.6-.5-1.5-.5-2.1 0L22.9 20l4.2-4.2z" fill="url(#SVGID_4_)"/><path d="M27 24.1l-14.5 8.3c-.6.4-1.4.4-2 0l-.1.1.1.1c.6.4 1.4.4 2 0l14.6-8.3-.1-.2z" opacity=".2"/><path d="M10.4 32.3c-.3-.4-.5-.9-.5-1.4v.2c0 .5.1 1 .5 1.4v-.2zm21.6-11l-5 2.8.1.1 4.9-2.8c.6-.3.9-.8 1-1.4-.1.6-.5 1-1 1.3z" opacity=".12"/><path d="M12.5 7.6L32 18.7c.5.3.9.7 1 1.3-.1-.6-.4-1.2-1-1.4L12.5 7.5c-1.4-.8-2.5-.1-2.5 1.4V9c0-1.5 1.1-2.2 2.5-1.4z" opacity=".25" fill="#fff"/><path d="M42.1 14.3h-.7v-2h.6c.6-.6.9-1.5.8-2.3V7h4v5.3h.7v2h-.7V13h-4.6v1.3zm1.4-4.3c0 .8-.2 1.6-.6 2.3h3V7.7h-2.4V10zm9.9 2.2c-1.2 1.2-3.2 1.2-4.4 0-1.2-1.2-1.2-3.2 0-4.4 1.2-1.2 3.2-1.2 4.4 0 1.2 1.2 1.2 3.2 0 4.4zm-3.8-.5c.9.9 2.4.9 3.3 0 .9-1 .9-2.5 0-3.4-.9-.9-2.4-.9-3.3 0-.9 1-.9 2.4 0 3.4zm8.6 1.4c-1.7 0-3.1-1.3-3.1-3V10c0-1.7 1.3-3.1 3-3.1h.1c.8 0 1.7.3 2.2 1l-.5.5c-.4-.5-1-.8-1.7-.8-.6 0-1.2.2-1.7.7-.9 1-.9 2.5 0 3.5.4.4 1 .7 1.7.7s1.4-.3 1.8-.9l.5.5c-.3.3-.6.6-1 .8-.4.1-.9.2-1.3.2zm5.5-.1h-.8V7.7h-1.7V7h4.1v.7h-1.7V13zm7-6l-2.3 5.1c-.2.6-.7 1-1.4 1.1-.2 0-.4 0-.6-.1l.2-.7c.1.1.3.1.4.1.1 0 .3 0 .4-.1.1-.1.2-.2.3-.4l.2-.5-2-4.4h.9l1.5 3.4L69.7 7h1zm.8 6V7h4.3v6H75V7.7h-2.8V13h-.7zm5.7 0V7h.8v2.6h3V7h.8v6H81v-2.7h-3V13h-.8zm10.9-.8c-1.2 1.2-3.2 1.2-4.4 0-1.2-1.2-1.2-3.2 0-4.4 1.2-1.2 3.2-1.2 4.4 0 1.1 1.2 1.1 3.2 0 4.4zm-3.9-.5c.9.9 2.4.9 3.3 0 .9-1 .9-2.5 0-3.4-.9-.9-2.4-.9-3.3 0-.9 1-.9 2.4 0 3.4zm7.9 1.3V7h2.2c.5 0 .9.2 1.2.5.3.3.5.7.5 1.1 0 .3-.1.5-.2.8-.1.2-.4.4-.6.5.3.1.5.3.7.5.2.2.3.5.3.9 0 .5-.2.9-.5 1.2-.3.3-.8.5-1.3.5h-2.3zm.8-3.4h1.4c.3 0 .5-.1.7-.3.3-.4.4-.9 0-1.3-.2-.2-.4-.3-.7-.3h-1.4v1.9zm0 2.7h1.6c.3 0 .5-.1.7-.3.2-.2.3-.4.3-.7 0-.6-.4-1-1-1H93l-.1 2z" fill="#fff" stroke="#fff" stroke-width=".2" stroke-miterlimit="10"/></svg>
